<svg width="40" height="40" viewBox="0 0 40 40" fill="none" xmlns="http://www.w3.org/2000/svg">
<circle cx="20" cy="20" r="20" fill="#4CD964"/>
<g clip-path="url(#clip0_1_103)">
<path d="M21.8921 15.56L24.903 12.5491C25.6066 11.8455 26.7475 11.8455 27.4512 12.5491C28.1548 13.2528 28.1548 14.3937 27.4512 15.0973L24.4402 18.1082L26.0693 26.2146C26.1293 26.5128 26.0357 26.8209 25.8212 27.0364L25.2212 27.6364C24.7575 28.1 23.9693 27.9346 23.7312 27.3237L21.3457 21.2028L18.2493 24.2991L18.4148 26.2718C18.4375 26.5382 18.3412 26.8018 18.1521 26.9909L17.1648 27.9782L15.2366 24.7637L12.0221 22.8355L13.0093 21.8482C13.1984 21.6591 13.4612 21.5628 13.7284 21.5855L15.7012 21.7509L18.7975 18.6546L12.6775 16.2691C12.0657 16.0309 11.9002 15.2437 12.3639 14.7791L12.9639 14.1791C13.1793 13.9637 13.4875 13.8709 13.7857 13.9309L21.8921 15.56V15.56Z" stroke="white" stroke-linecap="round" stroke-linejoin="round"/>
</g>
<defs>
<clipPath id="clip0_1_103">
<rect width="21.8182" height="21.8182" fill="white" transform="translate(9.09114 9.09094)"/>
</clipPath>
</defs>
</svg>
