<svg width="40" height="40" viewBox="0 0 40 40" fill="none" xmlns="http://www.w3.org/2000/svg">
<circle cx="20" cy="20" r="20" fill="#0DD149"/>
<g clip-path="url(#clip0_1_110)">
<path d="M12.7274 17.2728C12.7274 14.5455 16.3638 11.8182 20.0002 11.8182C23.6365 11.8182 27.2729 14.5455 27.2729 17.2728C27.2729 17.2728 23.6365 17.2728 20.0002 17.2728C16.3638 17.2728 12.7274 17.2728 12.7274 17.2728Z" stroke="white" stroke-width="1.5" stroke-linecap="round" stroke-linejoin="round"/>
<path d="M20.0002 22.7273V17.2728" stroke="white" stroke-linecap="round" stroke-linejoin="round"/>
<path d="M17.2729 17.2273C17.2729 14.2655 18.4938 11.8637 20.0002 11.8637C21.5066 11.8637 22.7275 14.2655 22.7275 17.2273" stroke="white" stroke-linecap="round" stroke-linejoin="round"/>
<path d="M15.5366 25.4546L14.5457 28.1818" stroke="white" stroke-linecap="round" stroke-linejoin="round"/>
<path d="M23.5548 25.4546L24.5457 28.1818" stroke="white" stroke-linecap="round" stroke-linejoin="round"/>
<path d="M13.182 25.4546H23.2711C24.2548 25.4546 25.212 25.1355 25.9984 24.5455L27.6366 23.3173C28.1066 22.9655 28.2975 22.3518 28.112 21.7955C27.8175 20.9128 26.7448 20.5773 26.0002 21.1355L24.362 22.3637C24.0475 22.6 23.6648 22.7273 23.2711 22.7273H13.182C12.4293 22.7273 11.8184 23.3382 11.8184 24.0909C11.8184 24.8437 12.4293 25.4546 13.182 25.4546V25.4546Z" stroke="white" stroke-linecap="round" stroke-linejoin="round"/>
</g>
<defs>
<clipPath id="clip0_1_110">
<rect width="21.8182" height="21.8182" fill="white" transform="translate(9.09114 9.09094)"/>
</clipPath>
</defs>
</svg>
