<svg width="40" height="40" viewBox="0 0 40 40" fill="none" xmlns="http://www.w3.org/2000/svg">
<circle cx="20" cy="20" r="20" fill="#F2994A"/>
<g clip-path="url(#clip0_1_138)">
<path d="M22.3893 23.6364H17.6111C17.3929 23.6364 17.182 23.7146 17.0165 23.8573L13.7884 26.6473C12.4965 27.7637 10.5174 26.6482 10.8074 24.9664C11.3329 21.9182 11.8665 18.8209 12.3984 15.7437C12.6993 14.0009 14.2111 12.7273 15.9811 12.7273H24.0202C25.7893 12.7273 27.302 14.0009 27.6029 15.7446C28.1347 18.8219 28.6684 21.9191 29.1938 24.9673C29.4838 26.65 27.5038 27.7646 26.2129 26.6482L22.9847 23.8582C22.8184 23.7146 22.6074 23.6364 22.3893 23.6364Z" stroke="white" stroke-linecap="round" stroke-linejoin="round"/>
<path d="M14.5457 18.1819H18.182" stroke="white" stroke-linecap="round" stroke-linejoin="round"/>
<path d="M16.3639 16.3637V20" stroke="white" stroke-linecap="round" stroke-linejoin="round"/>
<path d="M23.6357 16.1364C23.5103 16.1364 23.4085 16.2382 23.4094 16.3637C23.4094 16.4891 23.5112 16.5909 23.6366 16.5909C23.7621 16.5909 23.8639 16.4891 23.8639 16.3637C23.8639 16.2382 23.7621 16.1364 23.6357 16.1364Z" stroke="white" stroke-linecap="round" stroke-linejoin="round"/>
<path d="M25.4538 17.9546C25.3283 17.9546 25.2265 18.0564 25.2274 18.1818C25.2274 18.3073 25.3293 18.4091 25.4547 18.4091C25.5802 18.4091 25.682 18.3073 25.682 18.1818C25.682 18.0564 25.5802 17.9546 25.4538 17.9546Z" stroke="white" stroke-linecap="round" stroke-linejoin="round"/>
<path d="M23.6357 19.7728C23.5103 19.7728 23.4085 19.8746 23.4094 20C23.4094 20.1255 23.5112 20.2273 23.6366 20.2273C23.7621 20.2273 23.8639 20.1255 23.8639 20C23.8639 19.8746 23.7621 19.7728 23.6357 19.7728Z" stroke="white" stroke-linecap="round" stroke-linejoin="round"/>
<path d="M21.8175 17.9546C21.6921 17.9546 21.5902 18.0564 21.5911 18.1818C21.5911 18.3073 21.693 18.4091 21.8184 18.4091C21.9439 18.4091 22.0457 18.3073 22.0457 18.1818C22.0457 18.0564 21.9439 17.9546 21.8175 17.9546Z" stroke="white" stroke-linecap="round" stroke-linejoin="round"/>
</g>
<defs>
<clipPath id="clip0_1_138">
<rect width="21.8182" height="21.8182" fill="white" transform="translate(9.09114 9.09094)"/>
</clipPath>
</defs>
</svg>
