<svg width="40" height="40" viewBox="0 0 40 40" fill="none" xmlns="http://www.w3.org/2000/svg">
<circle cx="20" cy="20" r="20" fill="#2F80ED"/>
<g clip-path="url(#clip0_1_79)">
<path d="M20.0003 13.6364C17.643 16.1527 17.643 20.2109 20.0003 22.7273C22.3575 20.2109 22.3575 16.1527 20.0003 13.6364Z" stroke="white" stroke-linecap="round" stroke-linejoin="round"/>
<path d="M20.0002 13.6364C22.5165 13.6364 24.5456 15.6655 24.5456 18.1818C24.5456 20.6982 22.5165 22.7273 20.0002 22.7273" stroke="white" stroke-linecap="round" stroke-linejoin="round"/>
<path d="M20.0003 22.7273C17.4839 22.7273 15.4548 20.6982 15.4548 18.1818C15.4548 15.6655 17.4839 13.6364 20.0003 13.6364" stroke="white" stroke-linecap="round" stroke-linejoin="round"/>
<path d="M15.4548 18.1819H24.5457" stroke="white" stroke-linecap="round" stroke-linejoin="round"/>
<path d="M25.2529 29.0909H14.7474C13.632 29.0909 12.7274 28.1864 12.7274 27.0709V12.9291C12.7274 11.8137 13.632 10.9091 14.7474 10.9091H25.2529C26.3683 10.9091 27.2729 11.8137 27.2729 12.9291V27.0709C27.2729 28.1864 26.3683 29.0909 25.2529 29.0909Z" stroke="white" stroke-linecap="round" stroke-linejoin="round"/>
<path d="M22.7274 25.9091H17.2729" stroke="white" stroke-linecap="round" stroke-linejoin="round"/>
</g>
<defs>
<clipPath id="clip0_1_79">
<rect width="21.8182" height="21.8182" fill="white" transform="translate(9.09113 9.09094)"/>
</clipPath>
</defs>
</svg>
